<?xml version="1.0" encoding="UTF-8"?>
<svg version="1.1" xmlns="http://www.w3.org/2000/svg" width="263" height="263">
<path d="M0 0 C4.13998234 0.59499575 7.09334263 1.97741831 10.69921875 4.0703125 C12.37213989 5.03408813 12.37213989 5.03408813 14.07885742 6.01733398 C15.28183314 6.71972688 16.48471183 7.422286 17.6875 8.125 C18.92581891 8.84186542 20.16451226 9.55808439 21.40356445 10.27368164 C23.97292534 11.75885023 26.53999244 13.24787797 29.10546875 14.73974609 C32.92743395 16.96065332 36.75937718 19.16388362 40.59375 21.36328125 C42.3830507 22.39066444 44.17222385 23.4182693 45.96133423 24.44598389 C47.66965914 25.42725214 49.37816359 26.4082078 51.08666992 27.38916016 C52.11381104 27.98132324 53.14095215 28.57348633 54.19921875 29.18359375 C55.10502686 29.70493896 56.01083496 30.22628418 56.9440918 30.76342773 C59 32 59 32 60 33 C59.88635623 35.04558794 59.76414984 37.09101062 59.60206604 39.1333313 C57.36933944 58.58456432 57.36933944 58.58456432 62.15447998 76.84851074 C67.81693239 83.2610736 76.35143699 86.45473756 84.28857422 89.0625 C87 90 87 90 90 92 C90.8359375 95.21875 90.8359375 95.21875 90 99 C86.89282975 101.76632009 83.28955679 103.56618797 79.625 105.5 C77.43596612 106.7131235 75.24717284 107.92668121 73.05859375 109.140625 C71.90858887 109.76646484 70.75858398 110.39230469 69.57373047 111.03710938 C64.13056407 114.00947417 58.77631036 117.13688851 53.4130249 120.25024414 C49.73051401 122.38386263 46.03702401 124.49855406 42.34643555 126.61816406 C40.52937233 127.68824811 38.75458054 128.83027964 37 130 C29.23788522 131.11504767 24.58217613 127.96730654 18.125 123.9375 C15.99679288 122.65118633 13.86786014 121.36607259 11.73828125 120.08203125 C10.63693848 119.41123535 9.5355957 118.74043945 8.40087891 118.04931641 C3.86674958 115.31712103 -0.72052778 112.68326013 -5.31542969 110.05493164 C-8.61494646 108.16652445 -11.90409113 106.26111324 -15.19140625 104.3515625 C-18.61488515 102.36516078 -22.04987896 100.41355505 -25.52734375 98.5234375 C-26.72668016 97.84916758 -27.92591261 97.17471268 -29.125 96.5 C-30.09695312 95.9740625 -31.06890625 95.448125 -32.0703125 94.90625 C-34 93 -34 93 -34.3046875 89.28125 C-34.20414062 88.1984375 -34.10359375 87.115625 -34 86 C-32.86304687 85.3709375 -31.72609375 84.741875 -30.5546875 84.09375 C-20.99595732 78.79811791 -11.47099399 73.45115088 -2 68 C-2.56843628 67.71832977 -3.13687256 67.43665955 -3.72253418 67.14645386 C-7.31326007 65.00272736 -9.63201972 63.41460086 -10.71508789 59.2510376 C-10.92620532 55.79142081 -10.8988955 52.40951323 -10.78125 48.9453125 C-10.76993042 47.68862762 -10.75861084 46.43194275 -10.74694824 45.13717651 C-10.70982501 41.81120867 -10.63811186 38.48970765 -10.54931641 35.16497803 C-10.46716135 31.76662617 -10.43087466 28.36781074 -10.390625 24.96875 C-10.30251996 18.3112738 -10.16872886 11.65589454 -10 5 C-6.59687262 6.05875074 -3.98646769 7.00902154 -1 9 C-0.67 6.03 -0.34 3.06 0 0 Z " fill="#3F6DC4" transform="translate(109,74)"/>
<path d="M0 0 C2.7980957 1.33178711 2.7980957 1.33178711 5.67578125 3.02734375 C7.27764282 3.96199463 7.27764282 3.96199463 8.91186523 4.91552734 C10.03407471 5.58277832 11.15628418 6.2500293 12.3125 6.9375 C13.47613723 7.62016772 14.6402849 8.30196611 15.80493164 8.98291016 C19.21008029 10.97724383 22.60563264 12.98736985 26 15 C28.58236528 16.52772837 31.16498977 18.05500394 33.7487793 19.58032227 C35.17177378 20.42205564 36.5926382 21.2674041 38.01098633 22.11694336 C40.65858446 23.69210533 43.06633391 25.0221113 46 26 C46 22.7 46 19.4 46 16 C48.64 17.32 51.28 18.64 54 20 C54.33 15.38 54.66 10.76 55 6 C58.90239 7.560956 62.2818917 9.1792836 65.921875 11.22265625 C67.02917969 11.84333984 68.13648438 12.46402344 69.27734375 13.10351562 C70.42332031 13.74998047 71.56929688 14.39644531 72.75 15.0625 C73.92304157 15.719643 75.09621739 16.37654642 76.26953125 17.03320312 C84.86215996 21.86215996 84.86215996 21.86215996 86 23 C86.7109375 26.15625 86.7109375 26.15625 86 30 C82.90328941 32.77533828 79.28750686 34.56726974 75.625 36.5 C73.43596612 37.7131235 71.24717284 38.92668121 69.05859375 40.140625 C67.90858887 40.76646484 66.75858398 41.39230469 65.57373047 42.03710938 C60.13056407 45.00947417 54.77631036 48.13688851 49.4130249 51.25024414 C45.73051401 53.38386263 42.03702401 55.49855406 38.34643555 57.61816406 C36.52937233 58.68824811 34.75458054 59.83027964 33 61 C25.23788522 62.11504767 20.58217613 58.96730654 14.125 54.9375 C11.99679288 53.65118633 9.86786014 52.36607259 7.73828125 51.08203125 C6.63693848 50.41123535 5.5355957 49.74043945 4.40087891 49.04931641 C-0.13325042 46.31712103 -4.72052778 43.68326013 -9.31542969 41.05493164 C-12.61494646 39.16652445 -15.90409113 37.26111324 -19.19140625 35.3515625 C-22.61488515 33.36516078 -26.04987896 31.41355505 -29.52734375 29.5234375 C-30.72668016 28.84916758 -31.92591261 28.17471268 -33.125 27.5 C-34.09695312 26.9740625 -35.06890625 26.448125 -36.0703125 25.90625 C-38 24 -38 24 -38.3046875 20.28125 C-38.20414062 19.1984375 -38.10359375 18.115625 -38 17 C-36.86304687 16.3709375 -35.72609375 15.741875 -34.5546875 15.09375 C-33.44335449 14.47753784 -33.44335449 14.47753784 -32.30957031 13.84887695 C-30.67717228 12.94444463 -29.04369437 12.04195883 -27.40917969 11.14135742 C-23.53103498 8.99699385 -19.67953222 6.83144875 -15.8984375 4.51953125 C-15.27855957 4.14570313 -14.65868164 3.771875 -14.02001953 3.38671875 C-12.34463288 2.36993237 -10.67977752 1.33585196 -9.015625 0.30078125 C-5.33983285 -1.28476122 -3.84862066 -0.93656001 0 0 Z " fill="#EFF2F9" transform="translate(113,143)"/>
<path d="M0 0 C2.625 1.30078125 2.625 1.30078125 6 3.3125 C7.26485464 4.05729939 8.53052092 4.80072166 9.796875 5.54296875 C10.47427734 5.94177246 11.15167969 6.34057617 11.84960938 6.75146484 C15.61528041 8.9378456 19.43565768 11.02509872 23.25 13.125 C28.96129627 16.27813025 34.61243532 19.49239801 40.15234375 22.94140625 C42.12061475 24.14977801 42.12061475 24.14977801 45 25 C45 21.7 45 18.4 45 15 C47.64 16.32 50.28 17.64 53 19 C53.33 14.38 53.66 9.76 54 5 C57.90239 6.560956 61.2818917 8.1792836 64.921875 10.22265625 C66.02917969 10.84333984 67.13648438 11.46402344 68.27734375 12.10351562 C69.42332031 12.74998047 70.56929688 13.39644531 71.75 14.0625 C72.92304157 14.719643 74.09621739 15.37654642 75.26953125 16.03320312 C83.86215996 20.86215996 83.86215996 20.86215996 85 22 C85.7109375 25.15625 85.7109375 25.15625 85 29 C81.90328941 31.77533828 78.28750686 33.56726974 74.625 35.5 C72.43596612 36.7131235 70.24717284 37.92668121 68.05859375 39.140625 C66.90858887 39.76646484 65.75858398 40.39230469 64.57373047 41.03710938 C59.13056407 44.00947417 53.77631036 47.13688851 48.4130249 50.25024414 C44.73051401 52.38386263 41.03702401 54.49855406 37.34643555 56.61816406 C35.52937233 57.68824811 33.75458054 58.83027964 32 60 C24.23788522 61.11504767 19.58217613 57.96730654 13.125 53.9375 C10.99679288 52.65118633 8.86786014 51.36607259 6.73828125 50.08203125 C5.63693848 49.41123535 4.5355957 48.74043945 3.40087891 48.04931641 C-2.24213149 44.64892665 -7.96846107 41.39527002 -13.6875 38.125 C-22.21506886 33.22284171 -30.69053542 28.26490367 -39 23 C-38.67 21.68 -38.34 20.36 -38 19 C-37.55914062 19.31710938 -37.11828125 19.63421875 -36.6640625 19.9609375 C-30.87280757 23.97709513 -24.81649267 27.37242378 -18.64648438 30.7565918 C-9.93642992 35.5504772 -1.36647775 40.5793051 7.2109375 45.60546875 C8.15549805 46.15509277 9.10005859 46.7047168 10.07324219 47.27099609 C12.12533641 48.48328599 14.16130253 49.72309868 16.18457031 50.98291016 C17.22967773 51.62405762 18.27478516 52.26520508 19.3515625 52.92578125 C20.29080566 53.51399658 21.23004883 54.10221191 22.19775391 54.70825195 C25.49151585 56.22657348 27.40912022 56.45796981 31 56 C33.92595277 54.75280933 33.92595277 54.75280933 36.765625 52.9375 C37.82007813 52.30585938 38.87453125 51.67421875 39.9609375 51.0234375 C41.04632813 50.35570312 42.13171875 49.68796875 43.25 49 C45.41971989 47.6839404 47.59149068 46.37125407 49.765625 45.0625 C50.72243164 44.47597656 51.67923828 43.88945312 52.66503906 43.28515625 C55 42 55 42 57 42 C55.92283085 40.41591827 55.92283085 40.41591827 54 39 C52.58074219 38.91298828 52.58074219 38.91298828 51.1328125 38.82421875 C45.08982687 38.05765843 40.0615095 34.31957884 34.9375 31.25 C33.80022461 30.58129883 32.66294922 29.91259766 31.49121094 29.22363281 C28.55825432 27.49905003 25.63334228 25.76133139 22.71087646 24.01904297 C19.0164171 21.81852592 15.31331723 19.6325655 11.61157227 17.44433594 C9.74931855 16.34169616 7.88901942 15.23574636 6.03100586 14.12597656 C1.75482277 11.57937035 -2.5071988 9.1436241 -7 7 C-6.67 6.01 -6.34 5.02 -6 4 C-3.9375 3.3125 -3.9375 3.3125 -2 3 C-2 2.34 -2 1.68 -2 1 C-1.34 0.67 -0.68 0.34 0 0 Z " fill="#E4EBF8" transform="translate(114,144)"/>
<path d="M0 0 C4.52197755 0.90439551 6.82222518 1.82005846 10.69921875 4.0703125 C12.37213989 5.03408813 12.37213989 5.03408813 14.07885742 6.01733398 C15.28183314 6.71972688 16.48471183 7.422286 17.6875 8.125 C18.92581891 8.84186542 20.16451226 9.55808439 21.40356445 10.27368164 C23.97292534 11.75885023 26.53999244 13.24787797 29.10546875 14.73974609 C32.92743395 16.96065332 36.75937718 19.16388362 40.59375 21.36328125 C42.3830507 22.39066444 44.17222385 23.4182693 45.96133423 24.44598389 C47.66965914 25.42725214 49.37816359 26.4082078 51.08666992 27.38916016 C52.11381104 27.98132324 53.14095215 28.57348633 54.19921875 29.18359375 C55.10502686 29.70493896 56.01083496 30.22628418 56.9440918 30.76342773 C59 32 59 32 60 33 C60.10151884 35.92719026 60.13965182 38.83021105 60.1328125 41.7578125 C60.13376923 42.65305634 60.13472595 43.54830017 60.13571167 44.47067261 C60.13639453 46.37904937 60.13453295 48.28742843 60.13037109 50.19580078 C60.12511152 53.06418376 60.13026627 55.93240376 60.13671875 58.80078125 C60.14012817 69.24519339 59.88819997 79.59045819 59 90 C56.36 88.68 53.72 87.36 51 86 C50.67 88.97 50.34 91.94 50 95 C49.67 95 49.34 95 49 95 C49 76.52 49 58.04 49 39 C43.06 35.7 37.12 32.4 31 29 C26.76100082 26.55602474 22.52991847 24.10516974 18.3125 21.625 C16.3087497 20.45025479 14.30484754 19.27576856 12.30078125 18.1015625 C11.38893066 17.56692383 10.47708008 17.03228516 9.53759766 16.48144531 C6.37051213 14.63250603 3.18900779 12.81082121 0 11 C0 7.37 0 3.74 0 0 Z " fill="#7798D7" transform="translate(109,74)"/>
<path d="M0 0 C7.70314234 4.38378828 15.39073385 8.79443924 23.06982422 13.22021484 C25.28936188 14.49934269 27.50975251 15.77699151 29.73095703 17.05322266 C35.45272171 20.34732315 41.14850946 23.67638052 46.8046875 27.08203125 C47.88830566 27.72962402 48.97192383 28.3772168 50.08837891 29.04443359 C52.15188844 30.2799898 54.20920208 31.5259704 56.25927734 32.78369141 C57.65460693 33.61586182 57.65460693 33.61586182 59.078125 34.46484375 C60.29097168 35.20142212 60.29097168 35.20142212 61.52832031 35.95288086 C64.61267214 37.25955658 66.67362605 37.36321858 70 37 C72.72429285 35.90106258 72.72429285 35.90106258 75.359375 34.24609375 C76.38095703 33.64555176 77.40253906 33.04500977 78.45507812 32.42626953 C79.54240234 31.76997559 80.62972656 31.11368164 81.75 30.4375 C83.47443566 29.41894056 85.19888427 28.40040233 86.92407227 27.38311768 C88.72577164 26.31865133 90.52414926 25.2487283 92.32226562 24.17822266 C97.77456701 20.93971546 103.27344348 17.78187658 108.77062988 14.62039185 C110.48067312 13.63612418 112.18907722 12.6490105 113.89746094 11.66186523 C114.93161133 11.06446533 115.96576172 10.46706543 117.03125 9.8515625 C118.40120117 9.05999756 118.40120117 9.05999756 119.79882812 8.25244141 C121.17988691 7.46663489 122.57878495 6.71060752 124 6 C123.79516602 8.30883789 123.79516602 8.30883789 123 11 C120.97241211 12.63061523 120.97241211 12.63061523 118.27734375 14.05859375 C117.27461426 14.60290039 116.27188477 15.14720703 115.23876953 15.70800781 C113.60464111 16.56410645 113.60464111 16.56410645 111.9375 17.4375 C109.66160777 18.66844418 107.38689961 19.90157967 105.11328125 21.13671875 C104.23721222 21.60871201 104.23721222 21.60871201 103.34344482 22.09024048 C97.02117472 25.50250841 90.82142346 29.11430214 84.625 32.75 C83.60398193 33.34611084 82.58296387 33.94222168 81.53100586 34.55639648 C77.96843705 36.64151404 74.43532651 38.70978233 71 41 C63.23788522 42.11504767 58.58217613 38.96730654 52.125 34.9375 C49.99679288 33.65118633 47.86786014 32.36607259 45.73828125 31.08203125 C44.63693848 30.41123535 43.5355957 29.74043945 42.40087891 29.04931641 C36.75783179 25.64890453 31.03085096 22.39653268 25.3125 19.125 C22.13345299 17.28906053 18.95673288 15.4491642 15.78076172 13.60791016 C14.05598759 12.61060002 12.32887902 11.61730141 10.59814453 10.63037109 C8.68234644 9.53757839 6.77719381 8.42873781 4.875 7.3125 C3.90304688 6.75175781 2.93109375 6.19101563 1.9296875 5.61328125 C1.29289062 5.08089844 0.65609375 4.54851562 0 4 C0 2.68 0 1.36 0 0 Z " fill="#B9C9EA" transform="translate(75,163)"/>
<path d="M0 0 C4.85382378 1.38152975 8.75647633 3.56564898 12.9375 6.3125 C19.68252521 10.63957314 26.57151219 14.64667639 33.5625 18.5625 C35.52345017 19.66924839 37.48438787 20.77601886 39.4453125 21.8828125 C42.88485043 23.82043068 46.33705917 25.73041126 49.8046875 27.6171875 C51.18280134 28.3897165 52.56044464 29.16308582 53.9375 29.9375 C54.56406494 30.2662915 55.19062988 30.59508301 55.83618164 30.93383789 C57.52734375 31.90234375 57.52734375 31.90234375 60 34 C60.37890625 37.25390625 60.37890625 37.25390625 60 40 C53.81834281 38.37161044 48.68908874 35.05758153 43.25 31.8125 C41.11496877 30.55273196 38.97953706 29.29364244 36.84375 28.03515625 C35.73128906 27.37789551 34.61882812 26.72063477 33.47265625 26.04345703 C28.1590091 22.91074792 22.81732185 19.82645214 17.47399902 16.74472046 C15.77517389 15.76452494 14.07751912 14.78230189 12.37988281 13.80004883 C11.34186523 13.20087646 10.30384766 12.6017041 9.234375 11.984375 C8.31881836 11.45553711 7.40326172 10.92669922 6.45996094 10.38183594 C4.33304533 9.18708183 2.19333644 8.06657866 0 7 C0 4.69 0 2.38 0 0 Z " fill="#305B9E" transform="translate(99,79)"/>
<path d="M0 0 C1.5 1.375 1.5 1.375 3 3 C3 3.66 3 4.32 3 5 C1.1875 6.0625 1.1875 6.0625 -1 7 C-1.99 6.67 -2.98 6.34 -4 6 C-3.01 5.34 -2.02 4.68 -1 4 C-0.27617533 1.94074861 -0.27617533 1.94074861 0 0 Z " fill="#C9D3E7" transform="translate(133,130)"/>
</svg>
